<?xml version="1.0" encoding="UTF-8"?>
<svg width="100px" height="100px" viewBox="0 0 100 100" version="1.1" xmlns="http://www.w3.org/2000/svg" xmlns:xlink="http://www.w3.org/1999/xlink">
    <!-- Generator: Sketch 63 (92445) - https://sketch.com -->
    <title>home_icon_pdd</title>
    <desc>Created with Sketch.</desc>
    <defs>
        <linearGradient x1="0%" y1="0%" x2="84.3084753%" y2="100%" id="linearGradient-1">
            <stop stop-color="#FF927C" offset="0%"></stop>
            <stop stop-color="#FD2223" offset="100%"></stop>
        </linearGradient>
        <linearGradient x1="50%" y1="0%" x2="50%" y2="100%" id="linearGradient-2">
            <stop stop-color="#FFFFFF" offset="0%"></stop>
            <stop stop-color="#FFB0B0" offset="100%"></stop>
        </linearGradient>
    </defs>
    <g id="home_icon_pdd" stroke="none" stroke-width="1" fill="none" fill-rule="evenodd">
        <g transform="translate(8.000000, 8.000000)" id="编组">
            <g>
                <rect id="矩形" fill="url(#linearGradient-1)" fill-rule="nonzero" x="0" y="0" width="84" height="84" rx="20"></rect>
                <path d="M24,19.401998 C24.6043498,18.8782429 25.2544186,18.4090562 25.9425,18 L25.9425,38.0008442 C22.9425,35.8978472 20.1225,33.6158717 17.1225,31.5054172 C15.36,30.2749402 13.77,29.0519206 12.0075,27.8214436 C16.065,25.0174476 19.95,22.2059941 24.0075,19.401998 L24,19.401998 Z M19.9425,24.1374701 C19.9425,24.6669481 19.7625,25.0174476 19.7625,25.5394681 C19.5825,26.0689461 20.295,26.7699451 19.7625,27.2919657 C19.41,28.1719432 19.0575,28.8729422 18.705,29.5739412 C18.5124032,29.8360102 18.5124032,30.1918496 18.705,30.4539187 C18.885,30.8044182 19.41,30.6328971 19.7625,30.6328971 C20.115,30.8118756 20.295,30.9833967 20.6475,30.9833967 C21,30.9833967 21.18,30.8044182 21.5325,30.8044182 C21.885,30.8044182 22.2375,30.9833967 22.4175,30.8044182 C22.5975,30.8044182 22.77,30.6254397 23.1225,30.4539187 L24,30.4539187 C24.3525,30.2749402 24.3525,29.7529197 24.18,29.4024201 C23.613049,28.8344004 23.137473,28.182937 22.77,27.4709441 C22.2375,26.7699451 23.1225,25.8899676 22.77,25.1889686 C22.59,25.0099902 22.59,24.4879696 22.59,24.1374701 L22.2375,24.1374701 C22.0938373,24.5904849 21.7756551,24.9685279 21.3525,25.1889686 C20.8968996,25.0461212 20.5166989,24.7297448 20.295,24.3089911 C20.295,24.1300127 20.115,24.1300127 19.9425,24.1300127 L19.9425,24.1374701 Z M27,18 C28.7625,19.230477 30.5325,20.4534966 32.4675,21.6839735 L41.4675,28.0004221 C41.1394305,28.1895353 40.8412192,28.4257453 40.5825,28.7014211 C36.1725,31.6843957 31.7625,34.8463487 27.1725,37.8293232 C27,31.3338962 27,24.6669481 27,18 Z M28.41,25.5469256 C28.6061618,25.9779122 28.8421764,26.3898421 29.115,26.7774026 C29.295,26.7774026 29.4675,26.5984241 29.6475,26.5984241 L29.6475,30.8118756 C31.2300923,30.9874064 32.8274077,30.9874064 34.41,30.8118756 C34.4984657,29.4087691 34.4984657,28.0015306 34.41,26.5984241 C34.59,26.5984241 34.7625,26.7774026 34.9425,26.7774026 C35.3368629,26.3798881 35.6389327,25.9013555 35.8275,25.3754045 C34.9425,25.1964261 34.065,24.6744055 33.18,24.495427 C32.994222,25.0180042 32.499897,25.3695151 31.9425,25.3754045 C31.41,25.3754045 31.0575,24.8459266 30.885,24.495427 C30.0203613,24.738721 29.1909865,25.0921501 28.4175,25.5469256 L28.41,25.5469256 Z M42.525,28.1794006 C47.295,24.6669481 52.2375,21.333474 57,18 L57,37.8293232 C52.2375,34.6673702 47.295,31.3338962 42.5325,28.1794006 L42.525,28.1794006 Z M50.2875,24.1449275 C50.0220248,25.0025673 50.0220248,25.9197628 50.2875,26.7774026 C50.64,27.65738 51.525,28.1794006 52.05,28.8803996 C52.4025,29.2308991 52.23,29.7603771 52.23,30.1108766 C51.7274549,30.273277 51.2521889,30.5095614 50.82,30.8118756 L54,30.8118756 C53.4675,30.6328971 53.115,30.2823976 52.59,30.1108766 C52.59,29.7603771 52.41,29.0593781 52.77,28.8803996 C53.5371859,28.3499478 54.1461111,27.6233843 54.5325,26.7774026 C54.885,25.8974251 54.5325,25.024905 54.3525,24.1449275 L50.2875,24.1449275 Z M57.885,18 L61.59,20.632475 C64.59,22.7354721 67.41,24.6669481 70.41,26.7774026 L72,27.8289011 C67.2375,31.1623751 62.6475,34.4958492 57.885,38.0083017 L57.885,18 Z M60.5325,23.4364711 C60.6820348,24.0807903 61.1468857,24.6074327 61.77,24.8384691 L62.8275,24.8384691 C62.6475,24.4879696 62.6475,23.9584916 62.295,23.7869706 C61.7625,23.2574926 61.0575,23.4364711 60.5325,23.4364711 L60.5325,23.4364711 Z M63.3525,23.9659491 C63.1361057,24.2341965 62.9569986,24.5301782 62.82,24.8459266 C63.1725,24.8459266 63.705,24.8459266 63.8775,24.6669481 C64.0939692,24.3987526 64.2730827,24.1027604 64.41,23.7869706 C64.0481433,23.7609836 63.6853328,23.8223881 63.3525,23.9659491 L63.3525,23.9659491 Z M62.295,25.1964261 C61.4933194,25.3249968 60.778301,25.7712202 60.31329,26.433157 C59.848279,27.0950938 59.6730017,27.9161942 59.8275,28.7088786 C60.0699392,30.2299622 61.457627,31.3031497 63,31.1623751 C63.806638,31.0674724 64.5546617,30.6955831 65.115,30.1108766 C65.8123815,29.2114354 66.0121543,28.0251965 65.6475,26.9489236 C65.0054543,25.7281883 63.6703366,25.0302642 62.295,25.1964261 L62.295,25.1964261 Z M58.41,38.8808217 C63,35.5473477 67.41,32.3853947 72,29.0519206 L72,48.8812438 C67.41,45.5477698 63,42.3858168 58.41,39.0523428 C58.41,39.0523428 58.23,38.8733643 58.41,38.8733643 L58.41,38.8808217 Z M65.6475,36.9493457 C64.4893656,37.0968654 63.4890901,37.8266135 63,38.8808217 C62.82,39.5818207 63.5325,39.9323202 63.885,40.4617982 C64.4382379,40.9280356 65.1106379,41.2326414 65.8275,41.3417757 C66.3294891,41.7324481 66.8610694,42.0839927 67.4175,42.3932742 C67.5637028,41.9409254 67.624724,41.465639 67.5975,40.9912762 C68.213515,40.6230609 68.8024924,40.2118705 69.36,39.7607992 C69.8925,39.9397777 70.245,40.4617982 70.5975,40.6407767 C70.7775,40.6407767 71.13,40.6407767 71.13,40.4617982 C71.0954221,40.0325091 70.9756136,39.6142919 70.7775,39.2313212 C70.9988526,38.8578673 71.1202163,38.4342212 71.13,38.0008442 C71.13,37.6503447 70.7775,37.4713663 70.425,37.6503447 C70.047752,37.848554 69.7393405,38.1552152 69.54,38.5303222 C68.835,38.1798227 68.3025,37.6503447 67.5975,37.2998452 L67.5975,35.8978472 C66.7125,35.8978472 66.1875,36.5988462 65.655,36.9493457 L65.6475,36.9493457 Z M12,29.2308991 C16.59,32.5643732 21,35.7263262 25.59,39.0598002 C25.77,39.0598002 25.59,39.2387787 25.59,39.2387787 C21,42.3932742 16.59,45.7267483 12,48.8812438 L12,29.2308991 Z M16.0575,36.0768257 C15.9205827,36.3926155 15.7414692,36.6886077 15.525,36.9568032 C15.3552485,37.1734508 15.0961583,37.3022608 14.82,37.3073027 C14.3458579,37.6898357 14.0839107,38.2744866 14.115,38.8808217 C13.9385291,39.4518109 13.9385291,40.0623301 14.115,40.6333193 C14.1703171,41.162656 14.6387249,41.5524322 15.1725,41.5132967 L19.23,41.5132967 C19.5580331,41.5072751 19.8726346,41.3826788 20.115,41.1627972 C20.4675,40.8122977 20.295,40.1112987 20.295,39.5818207 C20.2223586,38.8586182 20.0429312,38.1500072 19.7625,37.4788237 C19.3963921,37.2661192 19.043274,37.0320431 18.705,36.7778247 C18.5436541,36.1770349 18.0717188,35.707778 17.4675,35.5473477 C16.9517458,35.56494 16.4561932,35.7510281 16.0575,36.0768257 L16.0575,36.0768257 Z M36.525,34.8463487 C37.23,33.9663712 37.41,32.9148727 37.935,32.0423526 C38.4192904,32.884675 38.8331818,33.7651266 39.1725,34.6748276 C39.525,34.6748276 39.8775,34.8538061 40.41,34.8538061 L40.41,35.8978472 C40.9425,35.7188687 41.4675,35.7188687 42.1725,35.5473477 C41.82,34.3168707 41.2875,33.0938511 40.935,32.0348952 C42.1725,32.5643732 43.23,32.9148727 44.2875,33.4368932 C43.935,34.1378922 43.755,35.0178697 43.4025,35.8903898 C43.935,35.7114113 44.46,35.7114113 44.8125,35.5398902 C44.9925,35.5398902 44.9925,35.3609118 45.165,35.1893907 C45.6537083,34.1664852 46.0672895,33.1097381 46.4025,32.0274377 C47.2875,32.5569157 47.9925,33.2579147 48.87,33.7799353 L48.3375,34.3094133 C47.805,34.8388912 47.1,35.1893907 46.575,35.7114113 L48.87,35.7114113 C49.05,36.2408893 49.2225,36.9418883 49.4025,37.4639088 L48,37.4639088 C47.82,38.1649078 47.6475,38.8659069 47.4675,39.7458843 C48.1349739,39.8396961 48.7877213,40.0176191 49.41,40.2753623 C49.7493988,40.8124572 49.9882472,41.4061893 50.115,42.0278599 C49.41,42.2068383 48.525,42.2068383 47.82,42.3783594 L47.2875,46.0623329 C46.9192872,46.412804 46.5025708,46.7091281 46.05,46.9423104 C45.6975,45.3613339 45.5175,43.7803574 45.165,42.2068383 C44.6287118,42.2343924 44.0915212,42.1739235 43.575,42.0278599 C43.2225,43.2583369 43.0425,44.6603349 42.69,45.8908119 C42.3375,46.4202899 41.805,46.4202899 41.28,46.7707894 C41.3081777,45.2472978 41.2480781,43.7234571 41.1,42.2068383 C40.7381433,42.2328253 40.3753328,42.1714208 40.0425,42.0278599 C39.8625,41.4983819 39.69,41.1478824 39.51,40.6258618 C38.805,41.3268608 38.9775,42.3783594 38.805,43.2583369 C38.625,44.4888138 38.4525,45.7118334 38.2725,46.7707894 C37.291044,46.126504 36.3493518,45.424243 35.4525,44.6677923 C35.985,44.4888138 36.69,44.3172928 37.215,44.1383143 C37.035,43.2583369 37.035,42.3858168 36.8625,41.5058393 C36.51,41.6848178 36.1575,42.0353173 35.805,42.2068383 C35.4525,41.3268608 35.2725,40.2753623 34.92,39.4028423 C35.5819258,39.3875002 36.2373578,39.2692358 36.8625,39.0523428 C36.8625,38.3513437 36.6825,37.8218658 36.6825,37.1208668 C36.5025,37.1208668 36.33,36.9418883 36.15,36.9418883 C35.7590459,36.381532 35.4057756,35.7960896 35.0925,35.1893907 C35.5827214,35.1772115 36.0641876,35.0575281 36.5025,34.8388912 L36.525,34.8463487 Z M38.82,39.2313212 L40.5825,39.2313212 L40.05,40.2828198 L41.64,39.7533418 C41.46,39.2238638 41.46,38.5228648 41.2875,38.0008442 C40.935,37.8218658 40.5825,37.8218658 40.23,37.6503447 C39.8775,37.2998452 39.8775,36.9493457 39.6975,36.5988462 C38.9925,37.1283242 38.9925,38.1798227 38.8125,39.2313212 L38.82,39.2313212 Z M43.935,37.8293232 C43.755,38.5303222 43.755,39.2313212 43.5825,39.9323202 C44.2875,39.7533418 44.82,39.7533418 45.525,39.5818207 C45.525,38.8808217 45.345,38.1798227 45.345,37.6503447 C44.8679298,37.6232752 44.3899306,37.6839501 43.935,37.8293232 Z M16.935,36.0768257 C17.4675,35.8978472 17.9925,36.4273252 18.1725,36.9568032 L16.0575,36.9568032 C16.41,36.6063036 16.59,36.2558041 16.9425,36.0768257 L16.935,36.0768257 Z M43.2375,50.1117208 L57,40.1112987 L57,60.112143 L52.7625,56.95019 C49.5825,54.6682144 46.41,52.2147179 43.23,50.1042634 L43.2375,50.1117208 Z M51.5325,46.0772478 C51.3525,46.4277473 51.3525,46.9572253 51.18,47.3077248 C51.5325,47.1287463 51.885,47.1287463 52.2375,46.9572253 C52.8483447,46.8159303 53.4907978,46.9436917 54,47.3077248 C53.82,46.9572253 53.82,46.4277473 53.6475,46.0772478 L51.5325,46.0772478 Z M51.885,47.6582243 C51.172019,47.8677854 50.589496,48.3814308 50.295,49.0602223 C50.0126297,50.0742966 50.4452035,51.151119 51.3525,51.6926973 C52.211166,52.1945979 53.3033197,52.0500089 54,51.3421978 C54.5590764,50.8763256 54.8338131,50.154584 54.725083,49.437383 C54.6163528,48.7201821 54.1398498,48.111042 53.4675,47.8297453 C52.935,47.4792458 52.41,47.6507668 51.8775,47.6507668 L51.885,47.6582243 Z M51.18,52.2221753 C51.36,52.5726748 51.36,53.1021528 51.5325,53.4526523 L53.475,53.4526523 C53.6161546,53.0495606 53.7338494,52.6387217 53.8275,52.2221753 C53.1225,52.7516533 52.065,52.5726748 51.18,52.2221753 L51.18,52.2221753 Z M57.885,39.9397777 C62.6475,43.2657943 67.2375,46.4277473 72,49.7612213 L64.59,55.0261714 C62.475,56.6071479 60.18,58.1881244 58.0575,59.7616435 C57.8775,53.2662164 57.8775,46.5992683 57.8775,39.9323202 L57.885,39.9397777 Z M62.475,45.5552272 L62.475,46.9572253 L63,46.9572253 C63.18,46.6067258 63,46.4277473 63,46.0772478 C63.3525,45.5477698 62.6475,45.7267483 62.4675,45.5477698 L62.475,45.5552272 Z M60.5325,45.7342057 L60.5325,46.9646827 C60.7125,46.9646827 60.885,47.1436612 61.065,47.1436612 C60.885,46.6141832 61.4175,45.7416631 60.5325,45.7416631 L60.5325,45.7342057 Z M64.59,45.7342057 C64.41,46.0847052 64.59,46.4352047 64.59,46.7857042 C64.59,46.9646827 65.1225,46.9646827 65.1225,46.7857042 C65.3025,46.4352047 65.1225,46.0847052 65.1225,45.7342057 L64.59,45.7342057 Z M60,47.6507668 L60,52.7367384 C60,52.9157169 60.3525,53.0872379 60.5325,53.0872379 L64.59,53.0872379 C64.9425,53.0872379 65.295,53.2662164 65.475,52.9082595 C65.6193804,52.5773156 65.6811353,52.2165641 65.655,51.8567609 C66.0075,51.6777825 66.1875,51.6777825 66.54,51.5062614 C67.0978476,51.1020576 67.251086,50.3402143 66.8925,49.7537639 C66.5418004,49.3040318 66.042287,48.9922867 65.4825,48.8737864 L65.4825,47.6507668 L60,47.6507668 Z M12,49.7612213 C16.59,46.5992683 21.18,43.2657943 25.9425,40.1112987 L25.9425,59.9406219 C23.1225,58.0091459 20.475,55.9061489 17.6475,53.7956944 C15.705,52.3936964 13.7625,51.1632194 12,49.7612213 Z M23.6475,46.4277473 C23.295,46.9572253 22.7625,47.3077248 22.59,47.8297453 C22.0575,48.7097228 21.885,49.7612213 21.18,50.6337414 C20.1225,50.9842409 18.7125,50.9842409 17.8275,52.0357394 C18.8597328,52.7448114 20.1634181,52.9402177 21.36,52.5652174 C22.065,52.3862389 22.245,51.6852399 22.4175,51.1632194 C22.4907492,50.4921799 22.8049802,49.8699323 23.3025,49.4107218 C23.4825,49.2317434 23.655,49.5897003 23.655,49.7612213 L23.655,52.7441959 L24,52.7441959 C24,51.6926973 23.82,50.4622203 24.3525,49.4107218 C24.6535303,48.8783578 24.7769501,48.2647611 24.705,47.6582243 C24.5016018,47.141544 24.1290649,46.7080706 23.6475,46.4277473 L23.6475,46.4277473 Z M27,40.1112987 C29.82,42.0427747 32.4675,43.9742507 35.115,46.0772478 C36.8775,47.4792458 38.82,48.7097228 40.5825,50.1117208 C36,53.4451949 31.41,56.7786689 27,60.112143 L27,40.1112987 Z M30.885,46.6067258 C30.5325,46.7857042 30.5325,47.1362037 30.18,47.3077248 C29.7029238,47.2804836 29.2248931,47.3411625 28.77,47.4867033 C28.59,47.4867033 28.4175,47.8372028 28.4175,48.0161812 L28.4175,52.0506543 C28.4175,52.4011538 28.95,52.4011538 29.1225,52.4011538 L34.9425,52.4011538 C35.295,52.4011538 35.295,52.0506543 35.295,51.7001548 L35.295,47.6507668 C34.8157752,47.3692755 34.2589679,47.2465329 33.705,47.3002673 C33.4954995,46.9762386 33.1844648,46.7298714 32.82,46.5992683 L30.885,46.6067258 Z M27.5325,60.813142 C32.295,57.4796679 36.885,54.1461939 41.6475,50.9842409 L41.6475,61.514141 C41.8275,64.676094 41.6475,67.8305896 41.6475,70.8135641 C38.295,68.5315886 35.115,66.078092 31.7625,63.7961165 C30.3525,62.744618 28.7625,61.6931195 27.525,60.813142 L27.5325,60.813142 Z M36.3525,56.95019 L37.0575,56.95019 C36.8775,56.7712115 36.8775,56.5996904 36.705,56.5996904 L36.3525,56.95019 Z M33.885,58.5311665 C33.4287461,59.1756553 33.0722815,59.8845385 32.8275,60.6341635 C33.0075,60.6341635 33.36,60.455185 33.5325,60.455185 C34.065,60.455185 34.59,60.6341635 34.9425,60.455185 C35.3357793,60.2781109 35.7867207,60.2781109 36.18,60.455185 C36.2087035,61.3983501 36.1484399,62.3421143 36,63.274096 C36,63.6245955 35.4675,63.6245955 35.295,63.6245955 L34.7625,62.5730969 C34.5825,62.7520754 34.41,62.7520754 34.41,62.9235965 C34.3340869,63.5403028 34.7034547,64.1254473 35.295,64.3255945 C35.6233083,64.4261972 35.9786939,64.3891427 36.2788726,64.2230103 C36.5790512,64.056878 36.7979911,63.7760749 36.885,63.445617 L36.885,60.4626425 C37.4203975,60.3472956 37.9790851,60.4101843 38.475,60.6416209 C39.1104771,60.4661591 39.7820229,60.4661591 40.4175,60.6416209 C40.3077428,59.9288272 40.0013984,59.2602431 39.5325,58.7101449 C39.1978874,58.3213581 38.7731757,58.0193486 38.295,57.8301674 C37.616748,57.3415282 36.7710317,57.1408635 35.9439612,57.2723319 C35.1168907,57.4038002 34.3762406,57.8566286 33.885,58.5311665 L33.885,58.5311665 Z M42.5325,50.9916983 C47.295,54.3251724 51.885,57.4871254 56.6475,60.8205994 C52.0575,64.1540734 47.295,67.666526 42.705,71 C42.525,64.1540734 42.525,57.4871254 42.525,50.9991558 L42.5325,50.9916983 Z M47.1225,56.6071479 C46.9425,56.7861264 46.9425,57.1366259 46.59,57.1366259 C46.0575,57.4871254 45.5325,58.0166033 45,58.3671029 C45.2065807,58.5072089 45.4561557,58.5705685 45.705,58.5460813 L49.59,58.5460813 C49.2375,58.0166033 48.705,57.8450823 48.3525,57.4945828 C47.82,57.1440833 47.4675,56.7935838 47.115,56.6146053 L47.1225,56.6071479 Z M45,59.2321655 L45,62.916139 C45,63.0951175 45,63.445617 45.3525,63.445617 L49.41,63.445617 C49.5568973,62.9320271 49.6177113,62.3978852 49.59,61.8646405 L49.59,59.2321655 C49.59,59.053187 49.2375,59.053187 49.0575,59.053187 C47.7024448,59.0173286 46.3465387,59.0771384 45,59.2321655 L45,59.2321655 Z" id="形状" fill="url(#linearGradient-2)"></path>
            </g>
        </g>
    </g>
</svg>