<?xml version="1.0" encoding="UTF-8"?>
<svg width="100px" height="100px" viewBox="0 0 100 100" version="1.1" xmlns="http://www.w3.org/2000/svg" xmlns:xlink="http://www.w3.org/1999/xlink">
    <!-- Generator: Sketch 63 (92445) - https://sketch.com -->
    <title>home_icon_jd</title>
    <desc>Created with Sketch.</desc>
    <defs>
        <linearGradient x1="20.0832098%" y1="17.1907323%" x2="68.2166362%" y2="79.3888889%" id="linearGradient-1">
            <stop stop-color="#FF9D4A" offset="0%"></stop>
            <stop stop-color="#FF3C23" offset="100%"></stop>
        </linearGradient>
    </defs>
    <g id="home_icon_jd" stroke="none" stroke-width="1" fill="none" fill-rule="evenodd">
        <g id="home_icon_pdd" transform="translate(1.000000, 12.000000)" fill="url(#linearGradient-1)" fill-rule="nonzero">
            <path d="M17.1190877,24.9412829 C17.2761944,26.9552528 17.4995803,28.9789994 17.5769063,31.003968 C17.721739,34.7642749 16.2243162,37.7559002 13.1521447,39.9470702 C10.7832709,41.6384138 8.19223847,42.8617051 5.36554607,43.528955 C2.05894198,44.2964144 -0.701471051,41.5931974 0.158933421,38.3119416 C0.651119101,36.4433979 1.27586352,34.5406362 2.25900755,32.8945091 C4.69416065,28.8115759 6.18053688,24.3962401 7.39811349,19.8574751 C7.62149956,19.0118033 7.92343886,18.1661314 8.30270404,17.3766747 C8.96181561,16.0091793 10.4702849,15.2967131 11.9112476,15.7305475 C12.9496243,16.0421752 13.9671353,16.4870083 14.9392329,16.9990553 C16.4808419,17.7995106 17.9782647,18.7123963 19.4977806,19.5800654 C20.4256918,18.5901894 21.3192359,17.5440982 22.2802868,16.5884401 C25.6654442,13.2399706 29.8434993,11.1147922 34.1001076,9.15825958 C40.769776,6.08842189 47.6296907,3.48541451 54.8467778,1.99449005 C58.1865216,1.30524298 61.6060462,0.859187826 65.0132966,0.603775322 C69.0796587,0.303146364 73.1681139,0.14794347 77.2357033,0.248153208 C82.519642,0.370360106 87.7262546,1.07182789 92.5523747,3.48541451 C95.1556811,4.7869182 97.3343085,6.58824806 97.8031737,9.54809957 C98.1272062,11.6170627 98.0044666,13.8082326 97.770034,15.9101917 C97.3797222,19.4810778 95.915439,22.7733322 94.485523,26.021592 C94.1050303,26.8782626 93.1108398,27.5675095 92.2504353,28.0685578 C90.0718078,29.3358435 87.6366547,29.9933167 85.1671346,30.4601473 C78.2065735,31.7836481 71.3810257,31.1946108 64.7224039,28.8140201 C60.7677348,27.4013081 57.5838703,24.8312967 54.6786246,21.8836659 C54.3766853,21.5830369 54.131206,21.1724216 53.7629874,20.9939995 C53.3714481,20.8045787 52.7467037,20.6493759 52.4668574,20.8387967 C52.1759646,21.039216 52.0090387,21.6954672 52.0875921,22.0853072 C52.1882385,22.5521377 52.5454108,23.0189681 52.8915364,23.3868109 C57.1039585,27.9255758 62.2320179,30.9611956 68.2757145,32.3519103 C75.4928014,34.0090361 82.6767487,33.9210471 89.7600494,31.5844509 C90.1626352,31.4512455 90.5639935,31.2948206 90.9555328,31.1176205 C91.3360255,30.950197 91.7152908,30.7387791 92.2406163,30.6507901 C91.4587651,31.7860923 90.7211003,32.9421698 89.9061095,34.043254 C84.408604,41.3842235 77.3596703,46.5462437 68.4671882,49.1260318 C62.7917104,50.772159 57.1162325,50.5387438 51.4738943,49.1700262 C42.0450403,46.8786465 33.3869908,42.9411397 25.9231973,36.6450393 C23.5997372,34.6872845 21.4100633,32.5731048 19.8795007,29.9151044 C19.287896,28.8910105 18.7846638,27.7789275 18.5048175,26.655846 C18.2703849,25.7527368 17.9021663,25.1746981 17.1190877,24.9412829 L17.1190877,24.9412829 Z M85.7611941,2.51631363 C84.6663572,2.61652324 83.5604736,2.66051782 82.4766831,2.8279413 C80.8012879,3.09557439 79.2032187,3.64061727 77.8739491,4.73070291 C76.7005589,5.68758307 76.8355724,7.06607708 78.1415214,7.80054073 C78.6668468,8.09017111 79.2584515,8.30158903 79.8402371,8.4567918 C82.4877297,9.18025674 85.1916824,8.99083597 87.8723148,8.69020701 C89.246998,8.53500425 90.6094073,8.10116968 91.9055371,7.60012138 C92.7990813,7.25549784 93.4692393,6.49903703 93.4250531,5.4089514 C93.3808669,4.37385879 92.5315089,3.99623939 91.7717511,3.64061727 C89.8717425,2.77172614 87.8391751,2.52731221 85.7611941,2.51631363 L85.7611941,2.51631363 Z M54.2895401,14.6954549 C55.8765628,14.6954549 57.1162325,13.583372 57.1162325,12.1816587 C57.1051859,10.790944 55.809056,9.63486659 54.2784935,9.64586517 C52.6804243,9.65686375 51.4849408,10.7469495 51.4738943,12.1816587 C51.4738943,13.583372 52.7025175,14.6856785 54.2895401,14.6954549 Z M66.5892727,75.2868664 C65.8516079,75.2868664 65.1483102,75.3308609 64.4560589,75.2648691 C64.2658125,75.2428719 64.0092869,74.9202456 63.9528267,74.6868304 C63.4385479,72.6850811 63.0028224,70.6491138 62.4443573,68.6583632 C62.2320179,67.8799051 61.8306594,67.1234443 61.3716134,66.4451959 C60.6793622,65.4113255 59.5170184,65.2768979 58.7351674,66.2447766 C57.9754095,67.1796595 57.3052514,68.2355272 56.8363862,69.3488323 C56.1551816,70.9729622 55.6629959,72.6740825 55.1830842,74.3764249 C54.9817913,75.0778925 54.7363122,75.4445133 53.9544611,75.3223064 C53.5187356,75.2550927 53.0498704,75.3113079 52.5024519,75.3113077 C52.6141449,72.3966728 52.7147913,69.5712488 52.8264843,66.4904125 C52.1330058,66.8350361 51.6089077,67.0024595 51.206322,67.3128651 C50.2784109,68.0583273 49.3627737,68.8257867 48.5244624,69.6714585 C47.0049465,71.217376 45.5308442,72.8195087 44.0555145,74.4216415 C43.1288307,75.4225161 42.8035709,75.5227258 41.2067289,75.156105 C43.0944636,71.9628383 44.972379,68.8050115 46.9042999,65.5677504 C45.0497049,65.0337062 43.4295426,64.2992425 42.7372914,62.4087015 C42.3015659,61.2294047 42.3690727,60.0623288 42.8489844,58.848814 C42.9606774,59.2606513 43.0502773,59.6822651 43.1730169,60.0941025 C43.7989888,62.2180587 45.6756768,63.3203651 47.7867975,62.6861112 C48.334216,62.5186877 48.9380947,62.0628558 49.2388067,61.5850268 C51.0934017,58.603178 52.8804899,55.5785569 54.6454849,52.5527137 C54.9695173,51.9966722 55.2935498,51.8964625 55.8974285,51.9966722 C58.8014468,52.4525041 61.7177391,52.8863386 64.6450778,52.1188791 C65.2820962,51.9526778 65.8957941,51.6850446 66.5782262,51.4406308 C66.5892727,59.3461963 66.5892727,67.2432072 66.5892727,75.2868664 L66.5892727,75.2868664 Z" id="形状"></path>
        </g>
    </g>
</svg>