<?xml version="1.0" encoding="UTF-8"?>
<svg width="100px" height="100px" viewBox="0 0 100 100" version="1.1" xmlns="http://www.w3.org/2000/svg" xmlns:xlink="http://www.w3.org/1999/xlink">
    <!-- Generator: Sketch 63 (92445) - https://sketch.com -->
    <title>home_icon_elm</title>
    <desc>Created with Sketch.</desc>
    <defs>
        <linearGradient x1="28.1275703%" y1="20.4863177%" x2="75.2218968%" y2="77.0618815%" id="linearGradient-1">
            <stop stop-color="#5FDBFF" offset="0%"></stop>
            <stop stop-color="#2593FF" offset="100%"></stop>
        </linearGradient>
        <linearGradient x1="50%" y1="0%" x2="50%" y2="100%" id="linearGradient-2">
            <stop stop-color="#FFFFFF" offset="0%"></stop>
            <stop stop-color="#A5E2FF" offset="100%"></stop>
        </linearGradient>
        <linearGradient x1="50%" y1="0%" x2="50%" y2="100%" id="linearGradient-3">
            <stop stop-color="#FFFFFF" offset="0%"></stop>
            <stop stop-color="#A5E2FF" offset="100%"></stop>
        </linearGradient>
    </defs>
    <g id="home_icon_elm" stroke="none" stroke-width="1" fill="none" fill-rule="evenodd">
        <g id="编组" transform="translate(4.000000, 10.000000)">
            <rect id="矩形" fill="url(#linearGradient-1)" x="5" y="16" width="82" height="63" rx="9.78723404"></rect>
            <path d="M55.8065831,37.526128 C58.242238,39.208827 60.0244244,41.4323937 61.2719549,44.1968279 C61.6283922,44.978081 61.5095798,45.4588522 60.737299,45.8795269 C56.0038545,48.6485312 51.2908311,51.4531072 46.5986198,54.2930223 C44.994652,55.2545646 43.5094966,54.8939863 42.7372158,53.4516728 C42.0243413,52.1295521 42.2619661,50.8675278 43.5689028,50.0261782 C45.9451515,48.5237683 48.3808063,47.0814549 50.8164611,45.6391414 C51.7075543,45.0982738 52.5986475,44.6175026 53.4303345,44.0766351 C54.4402402,43.4756711 54.4402402,43.1150928 53.549147,42.3338396 C51.885773,40.8915261 49.9253679,39.9299838 47.7273379,39.6895982 C43.331278,39.1487307 39.5886864,40.5910441 36.9154068,44.1968279 C34.1233147,47.9829008 33.7668774,52.2497449 35.7272825,56.5766853 C37.5094689,60.482951 41.6084978,63.367578 46.3015887,63.1271924 C48.1431814,63.2473852 49.9847741,62.7065177 51.7075543,61.8651681 C53.549147,60.9637222 54.6184588,61.3243006 55.6877707,63.1271924 C56.6382702,64.7497951 56.6382702,64.7497951 55.0343023,65.8315302 C48.9748684,70.0382779 40.1233424,69.1969284 34.776783,63.968542 C30.9747853,60.2425655 28.954974,55.6752394 29.4302237,50.2665638 C29.9648796,43.7761531 33.113409,38.8482487 38.9352181,36.0237181 C44.7570271,33.1991875 50.4600238,33.8001515 55.8065831,37.526128 Z M61.2719549,51.9492629 C61.8660171,53.030998 62.5788917,54.0526367 62.6382979,55.2545646 C62.6382979,55.9757214 62.3412668,56.5165889 61.7472046,56.9372637 C61.0937363,57.3579385 60.4402679,57.7786132 59.7273933,58.199288 C59.2521436,58.49977 58.9551125,58.3795772 58.7174877,57.898806 C58.1234255,56.8170709 57.4699572,55.7954322 56.875895,54.7737935 C56.5788639,54.3531187 56.6976764,53.9925403 57.1729261,53.7521548 C58.2943119,53.1542246 59.403461,52.533098 60.4996741,51.8891665 C60.7967052,51.7088773 61.0937363,51.5886845 61.2719549,51.9492629 Z" id="形状结合" fill="url(#linearGradient-2)"></path>
            <path d="M9.78723404,0 L82.212766,0 C87.6181061,-2.76930171e-15 92,4.38189394 92,9.78723404 L92,28 L92,28 L0,28 L0,9.78723404 C-6.61963246e-16,4.38189394 4.38189394,-7.83411971e-16 9.78723404,0 Z" id="矩形备份" fill="#37AAFF"></path>
            <rect id="矩形" fill="url(#linearGradient-3)" x="34" y="17" width="24" height="6" rx="2.93617021"></rect>
        </g>
    </g>
</svg>