<?xml version="1.0" encoding="UTF-8"?>
<svg width="100px" height="100px" viewBox="0 0 100 100" version="1.1" xmlns="http://www.w3.org/2000/svg" xmlns:xlink="http://www.w3.org/1999/xlink">
    <!-- Generator: Sketch 63 (92445) - https://sketch.com -->
    <title>home_icon_hf</title>
    <desc>Created with Sketch.</desc>
    <defs>
        <linearGradient x1="27.8580411%" y1="0%" x2="71.3560901%" y2="100%" id="linearGradient-1">
            <stop stop-color="#CE9BFF" offset="0%"></stop>
            <stop stop-color="#805FFF" offset="100%"></stop>
        </linearGradient>
        <linearGradient x1="25.4659735%" y1="0%" x2="73.6632577%" y2="100%" id="linearGradient-2">
            <stop stop-color="#B871FF" offset="0%"></stop>
            <stop stop-color="#7744FB" offset="100%"></stop>
        </linearGradient>
        <linearGradient x1="50%" y1="0%" x2="50%" y2="100%" id="linearGradient-3">
            <stop stop-color="#FFFFFF" offset="0%"></stop>
            <stop stop-color="#E6DFFF" offset="100%"></stop>
        </linearGradient>
    </defs>
    <g id="home_icon_hf" stroke="none" stroke-width="1" fill="none" fill-rule="evenodd">
        <g id="home_icon_pdd" transform="translate(12.000000, 6.000000)">
            <g id="编组">
                <rect id="形状结合" fill="url(#linearGradient-1)" x="0" y="0" width="75.9999965" height="88" rx="12.5271616"></rect>
                <rect id="矩形" fill="#FFFFFF" x="30" y="78" width="16" height="6" rx="3"></rect>
                <rect id="矩形" fill="url(#linearGradient-2)" x="8" y="8" width="60" height="66" rx="9.39537119"></rect>
                <path d="M44.3134249,24.2400306 C45.2806273,22.806094 47.2271351,22.4277312 48.6610717,23.3949336 C50.0950083,24.3621361 50.4733711,26.3086439 49.5061687,27.7425805 L49.5061687,27.7425805 L44.981428,34.4491978 L48.5427512,34.4496944 C50.2723913,34.4496944 51.6745416,35.8518447 51.6745416,37.5814848 L51.6745416,37.8682096 C51.6745416,39.5978497 50.2723913,41 48.5427512,41 L41.036428,40.9991978 L41.036428,44.9751978 L48.5427512,44.975338 C50.2723913,44.975338 51.6745416,46.3774883 51.6745416,48.1071284 L51.6745416,48.860824 C51.6745416,50.5904641 50.2723913,51.9926144 48.5427512,51.9926144 L41.036428,51.9921978 L41.0368636,57.9381224 C41.0368636,59.6677624 39.6347133,61.0699128 37.9050732,61.0699128 L37.1171319,61.0699128 C35.3874918,61.0699128 33.9853415,59.6677624 33.9853415,57.9381224 L33.984428,51.9921978 L26.6202184,51.9926144 C24.8905783,51.9926144 23.488428,50.5904641 23.488428,48.860824 L23.488428,48.1071284 C23.488428,46.3774883 24.8905783,44.975338 26.6202184,44.975338 L33.984428,44.9751978 L33.984428,40.9991978 L26.6202184,41 C24.8905783,41 23.488428,39.5978497 23.488428,37.8682096 L23.488428,37.5814848 C23.488428,35.8518447 24.8905783,34.4496944 26.6202184,34.4496944 L30.180428,34.4491978 L25.6568009,27.7425805 C24.7254207,26.3617527 25.0417801,24.5056187 26.3469302,23.5063548 L26.5018978,23.3949336 C27.9358344,22.4277312 29.8823422,22.806094 30.8495447,24.2400306 L30.8495447,24.2400306 L36.9790071,33.3273323 C37.2155963,33.6780901 37.3716736,34.0595177 37.4514835,34.4497793 L37.711486,34.4497793 C37.791296,34.0595177 37.9473733,33.6780901 38.1839625,33.3273323 L38.1839625,33.3273323 Z" id="形状结合" fill="url(#linearGradient-3)"></path>
            </g>
        </g>
    </g>
</svg>