<?xml version="1.0" encoding="UTF-8"?>
<svg width="100px" height="100px" viewBox="0 0 100 100" version="1.1" xmlns="http://www.w3.org/2000/svg" xmlns:xlink="http://www.w3.org/1999/xlink">
    <!-- Generator: Sketch 63 (92445) - https://sketch.com -->
    <title>home_icon_jiudian</title>
    <desc>Created with Sketch.</desc>
    <defs>
        <linearGradient x1="39.0162517%" y1="0%" x2="60.59391%" y2="100%" id="linearGradient-1">
            <stop stop-color="#E6CDFF" offset="0%"></stop>
            <stop stop-color="#5E3AE0" offset="100%"></stop>
        </linearGradient>
        <linearGradient x1="28.6798535%" y1="0%" x2="70.5634457%" y2="100%" id="linearGradient-2">
            <stop stop-color="#CE9BFF" offset="0%"></stop>
            <stop stop-color="#805FFF" offset="100%"></stop>
        </linearGradient>
        <linearGradient x1="50%" y1="0%" x2="50%" y2="100%" id="linearGradient-3">
            <stop stop-color="#FFFFFF" offset="0%"></stop>
            <stop stop-color="#E6DFFF" offset="100%"></stop>
        </linearGradient>
    </defs>
    <g id="home_icon_jiudian" stroke="none" stroke-width="1" fill="none" fill-rule="evenodd">
        <g id="编组" transform="translate(3.000000, 7.000000)">
            <g id="编组-2" transform="translate(7.545455, 0.000000)">
                <path d="M25.4545455,0 L44.0454545,0 C47.5850977,2.49361277e-15 50.4545455,2.86944774 50.4545455,6.40909091 L50.4545455,77.9272727 C50.4545455,80.2870348 48.5415803,82.2 46.1818182,82.2 L4.72727273,82.2 C2.36751061,82.2 0.454545455,80.2870348 0.454545455,77.9272727 L0.454545455,25 C0.454545455,11.1928813 11.6474267,2.53632657e-15 25.4545455,0 Z" id="矩形备份-2" fill="url(#linearGradient-1)"></path>
                <path d="M41.2727273,23 L65.6363636,23 C72.71565,23 78.4545455,28.7388955 78.4545455,35.8181818 L78.4545455,77.7272727 C78.4545455,80.0870348 76.5415803,82 74.1818182,82 L32.7272727,82 C30.3675106,82 28.4545455,80.0870348 28.4545455,77.7272727 L28.4545455,35.8181818 C28.4545455,28.7388955 34.1934409,23 41.2727273,23 Z" id="矩形备份" fill="url(#linearGradient-2)"></path>
                <path d="M45.8636364,56.6136364 C47.6334579,56.6136364 49.0681818,58.0483602 49.0681818,59.8181818 L49.0681818,65.1590909 C49.0681818,66.9289125 47.6334579,68.3636364 45.8636364,68.3636364 L40.5227273,68.3636364 C38.7529057,68.3636364 37.3181818,66.9289125 37.3181818,65.1590909 L37.3181818,59.8181818 C37.3181818,58.0483602 38.7529057,56.6136364 40.5227273,56.6136364 L45.8636364,56.6136364 Z M66.1590909,56.6136364 C67.9289125,56.6136364 69.3636364,58.0483602 69.3636364,59.8181818 L69.3636364,65.1590909 C69.3636364,66.9289125 67.9289125,68.3636364 66.1590909,68.3636364 L60.8181818,68.3636364 C59.0483602,68.3636364 57.6136364,66.9289125 57.6136364,65.1590909 L57.6136364,59.8181818 C57.6136364,58.0483602 59.0483602,56.6136364 60.8181818,56.6136364 L66.1590909,56.6136364 Z M45.8636364,36.3181818 C47.6334579,36.3181818 49.0681818,37.7529057 49.0681818,39.5227273 L49.0681818,44.8636364 C49.0681818,46.6334579 47.6334579,48.0681818 45.8636364,48.0681818 L40.5227273,48.0681818 C38.7529057,48.0681818 37.3181818,46.6334579 37.3181818,44.8636364 L37.3181818,39.5227273 C37.3181818,37.7529057 38.7529057,36.3181818 40.5227273,36.3181818 L45.8636364,36.3181818 Z M66.1590909,36.3181818 C67.9289125,36.3181818 69.3636364,37.7529057 69.3636364,39.5227273 L69.3636364,44.8636364 C69.3636364,46.6334579 67.9289125,48.0681818 66.1590909,48.0681818 L60.8181818,48.0681818 C59.0483602,48.0681818 57.6136364,46.6334579 57.6136364,44.8636364 L57.6136364,39.5227273 C57.6136364,37.7529057 59.0483602,36.3181818 60.8181818,36.3181818 L66.1590909,36.3181818 Z" id="形状结合" fill="url(#linearGradient-3)"></path>
            </g>
            <rect id="矩形" fill="#8C63EC" x="0" y="76" width="94" height="10" rx="5"></rect>
        </g>
    </g>
</svg>