<?xml version="1.0" encoding="UTF-8"?>
<svg width="100px" height="100px" viewBox="0 0 100 100" version="1.1" xmlns="http://www.w3.org/2000/svg" xmlns:xlink="http://www.w3.org/1999/xlink">
    <!-- Generator: Sketch 63 (92445) - https://sketch.com -->
    <title>home_icon_hcp</title>
    <desc>Created with Sketch.</desc>
    <defs>
        <linearGradient x1="28.1275703%" y1="3.86945983%" x2="75.2218968%" y2="92.2983211%" id="linearGradient-1">
            <stop stop-color="#5FDBFF" offset="0%"></stop>
            <stop stop-color="#2593FF" offset="100%"></stop>
        </linearGradient>
        <linearGradient x1="50%" y1="0%" x2="50%" y2="100%" id="linearGradient-2">
            <stop stop-color="#FFFFFF" offset="0%"></stop>
            <stop stop-color="#A5E2FF" offset="100%"></stop>
        </linearGradient>
    </defs>
    <g id="home_icon_hcp" stroke="none" stroke-width="1" fill="none" fill-rule="evenodd">
        <g id="home_icon_pdd" transform="translate(12.000000, 8.000000)">
            <g id="火车票">
                <path d="M68.8759123,72.8694796 C69.4730528,72.5050394 69.827605,72.233828 69.827605,72.233828 C73.8769644,69.4183156 76.3317718,64.7331401 75.9636482,59.5174076 L73.0797308,17.5635599 C72.5910765,10.5324066 70.0091222,4.96570965 62.0342424,4.96570965 L48.0387608,4.96570965 C48.0387608,0.3212159 44.7154701,0 40.2607508,0 C39.5465571,0 38.8000466,0.00856010709 38.0366567,0.00856010709 C37.2724186,0.00856010709 36.5251447,0 35.8117993,0 C31.3595397,0 28.0337044,0.3212159 28.0337044,4.96570965 L16.0060724,4.96570965 C8.08717448,4.96570965 3.4245586,10.5324066 2.93259622,17.5635599 L0.0478306086,59.5174076 C-0.409355121,64.3093725 2.43639279,69.9759939 7.49257857,73 L68.8759123,72.8694796 Z" id="形状" fill="url(#linearGradient-1)"></path>
                <path d="M68.6007275,71 L7.33757955,71 L2.19901959,82.0353906 C1.68601014,83.0985156 2.19901959,84.3405508 3.34440206,84.8178906 C3.6449274,84.9376562 3.96069064,85 4.27306768,85 C4.38227266,85 4.48639834,84.973832 4.59560332,84.9573437 C4.70396175,84.9655469 4.80300813,84.9983594 4.91475276,84.9983594 L70.6560668,84.9983594 C70.850858,84.9983594 71.0217765,84.9573437 71.2046313,84.9294531 C71.3773276,84.9654648 71.5484154,84.9983594 71.7312703,84.9983594 C72.0411076,84.9983594 72.3542466,84.9376562 72.6557031,84.81625 C73.800239,84.3404687 74.3149416,83.0985156 73.800239,82.0353906 L68.6007275,71 Z" id="形状备份" fill="#1384F2"></path>
                <path d="M20.677739,46.233759 C24.3539745,46.233759 27.3467645,49.2967316 27.3467645,53.0364658 C27.3467645,56.7794585 24.3539745,59.8408436 20.677739,59.8408436 C17.0015034,59.8408436 14.0772251,56.7794585 14.0070424,53.0364658 C14.0070424,49.2967316 17.0015034,46.233759 20.677739,46.233759 Z M54.3662605,46.233759 C58.0392376,46.233759 61.0336985,49.2967316 61.0336985,53.0364658 C61.0336985,56.7794585 58.0392376,59.8408436 54.3662605,59.8408436 C50.6900249,59.8408436 47.7624881,56.7794585 47.6939764,53.0364658 C47.6939764,49.2967316 50.6900249,46.233759 54.3662605,46.233759 Z M57.7259435,15 C59.540278,15 61,16.5005881 61,18.3491503 L61,31.6524719 C61,33.5018453 59.5370906,35 57.7259435,35 L18.2747921,35 C16.4612748,35 15,33.5018453 15,31.6524719 L15,18.3491503 C15,16.5005881 16.4612748,15 18.2747921,15 L57.7259435,15 Z" id="形状结合" fill="url(#linearGradient-2)"></path>
            </g>
        </g>
    </g>
</svg>