<?xml version="1.0" encoding="UTF-8"?>
<svg width="100px" height="100px" viewBox="0 0 100 100" version="1.1" xmlns="http://www.w3.org/2000/svg" xmlns:xlink="http://www.w3.org/1999/xlink">
    <!-- Generator: Sketch 63 (92445) - https://sketch.com -->
    <title>home_icon_mt</title>
    <desc>Created with Sketch.</desc>
    <defs>
        <linearGradient x1="28.1275703%" y1="0%" x2="75.2218968%" y2="95.8463318%" id="linearGradient-1">
            <stop stop-color="#FFE34C" offset="0%"></stop>
            <stop stop-color="#FFB418" offset="64.217801%"></stop>
            <stop stop-color="#FF8E0C" offset="100%"></stop>
        </linearGradient>
    </defs>
    <g id="home_icon_mt" stroke="none" stroke-width="1" fill="none" fill-rule="evenodd">
        <g id="编组-2" transform="translate(8.000000, 8.000000)">
            <rect id="矩形" fill="url(#linearGradient-1)" x="0" y="0" width="84" height="84" rx="20"></rect>
            <g id="编组" transform="translate(11.000000, 27.000000)" fill="#000000" fill-rule="nonzero">
                <path d="M24.647013,2.00243862e-14 L21.4061039,2.00243862e-14 C20.8183117,1.74324675 20.621039,2.44376623 20.621039,2.44376623 L8.01168831,2.44376623 C8.01168831,2.44376623 7.82246753,1.74324675 7.2225974,2.00243862e-14 L3.99376623,2.00243862e-14 L3.99376623,2.44376623 L0.128831169,2.44376623 L0.128831169,5.36662338 L12.4684416,5.36662338 L12.4684416,7.77818182 L0.740779221,7.77818182 L0.740779221,10.9184416 L12.4724675,10.9184416 L12.4724675,13.1407792 L0.740779221,13.1407792 L0.740779221,16.2850649 L12.4724675,16.2850649 L12.4724675,18.5557143 L0.132857143,18.5557143 L0.132857143,21.6476623 L11.3250649,21.6476623 C11.3250649,21.6476623 8.1687013,25.6897403 0,26.0601299 L0,29.3574026 C0,29.3574026 8.87324675,30.2109091 14.3163636,23.1251948 C14.3163636,23.1251948 18.0283117,29.2325974 28.4998701,29.3654545 L28.4998701,25.9433766 C28.4998701,25.9433766 21.4705195,26.1527273 17.3962338,21.6436364 L28.5038961,21.6436364 L28.5038961,18.5436364 L16.2568831,18.5436364 L16.2568831,16.2850649 L27.9080519,16.2850649 L27.9080519,13.1448052 L16.2568831,13.1448052 L16.2568831,10.9184416 L27.9080519,10.9184416 L27.9080519,7.77818182 L16.2568831,7.77818182 L16.2568831,5.3625974 L28.4998701,5.3625974 L28.4998701,2.44376623 L24.638961,2.44376623 L24.647013,2.00243862e-14 Z M39.7041558,23.8297403 L43.4724675,23.8297403 C45.5077255,19.8737279 46.8606678,15.602568 47.4742857,11.1962338 L50.7514286,11.1962338 L50.7514286,19.1354545 C50.6942873,20.7179424 50.5179873,22.2938754 50.224026,23.8498701 L53.7024675,23.8498701 C53.9641558,22.2918182 54.097013,20.7176623 54.1050649,19.1394805 L54.1050649,11.1922078 L56.3636364,11.1922078 L56.3636364,8.13246753 L54.1090909,8.13246753 L54.1090909,5.58805195 L50.7635065,5.58805195 L50.7635065,8.1525974 L38.6453247,8.1525974 L38.6453247,11.2123377 L43.9394805,11.2123377 C43.3850369,15.6589034 41.944893,19.9492181 39.7041558,23.8297403 L39.7041558,23.8297403 Z" id="形状"></path>
                <path d="M33.4155844,0.805194805 L33.4155844,29.7922078 L57.8653247,29.7922078 C60.1523673,29.7855476 62.0022301,27.9284798 62.000002,25.6414286 L62.000002,0.805194805 L33.4155844,0.805194805 Z M58.8154626,25.6414286 C58.8165251,25.9090641 58.7109569,26.1661052 58.5220866,26.355731 C58.3332163,26.5453567 58.0765987,26.6519481 57.808961,26.6519481 L36.5719481,26.6519481 L36.5719481,3.91324675 L58.8154626,3.91324675 L58.8154626,25.6414286 L58.8154626,25.6414286 Z" id="形状"></path>
            </g>
        </g>
    </g>
</svg>